<svg width="100%" height="100%" viewBox="0 0 72 72" fill="none" xmlns="http://www.w3.org/2000/svg">
<path d="M36 6C52.5685 6 66 19.4315 66 36C66 52.5685 52.5685 66 36 66C19.4315 66 6 52.5685 6 36C6 19.4315 19.4315 6 36 6Z" fill="#FF5E5E" fill-opacity="0.2"/>
<path d="M35.6208 51C37.6447 51 39.1469 49.4418 39.1469 47.4049V47.3205C39.1469 45.2836 37.6447 43.7253 35.6208 43.7253C33.5969 43.7253 32.0947 45.2928 32.0947 47.3205V47.4049C32.0947 49.4418 33.5969 51 35.6208 51Z" fill="#FF5E5E"/>
<path d="M37.4828 39.0695L39.2278 23.1683C39.3448 21.9387 38.6971 21.0094 37.5997 21H33.6328C32.5355 21 31.8968 21.9293 32.0137 23.159L33.7588 39.0695C33.8757 40.2053 34.6043 40.9281 35.6208 40.9281C36.6372 40.9281 37.3658 40.2147 37.4828 39.0695Z" fill="#FF5E5E"/>
</svg>
