<svg width="100%" height="100%" viewBox="0 0 25 24" fill="none" xmlns="http://www.w3.org/2000/svg">
<path d="M12.25 2C17.7728 2 22.25 6.47715 22.25 12C22.25 17.5228 17.7728 22 12.25 22C6.72715 22 2.25 17.5228 2.25 12C2.25 6.47715 6.72715 2 12.25 2ZM17.333 8.28516C16.9426 7.89472 16.3095 7.89489 15.9189 8.28516L10.6094 13.5938L8.58203 11.5664L8.50586 11.498C8.11318 11.1779 7.53406 11.2006 7.16797 11.5664C6.80172 11.9327 6.77889 12.5125 7.09961 12.9053L7.16797 12.9805L9.90234 15.7158L9.97852 15.7842C10.3712 16.1042 10.9503 16.0815 11.3164 15.7158L17.333 9.69922C17.7232 9.30876 17.7232 8.67562 17.333 8.28516Z" fill="currentColor"/>
</svg>
