<svg width="60" height="60" viewBox="0 0 60 60" fill="none" xmlns="http://www.w3.org/2000/svg">
<rect x="5" y="5" width="50" height="50" rx="16" fill="#F3F6F9"/>
<path d="M34.5 29.75L18.5 29.75C17.3954 29.75 16.5 30.6454 16.5 31.75L16.5 32.75C16.5 33.8546 17.3954 34.75 18.5 34.75L34.5 34.75C35.6 34.75 36.5 34.25 36.5 32.75L36.5 31.75C36.5 30.25 35.6 29.75 34.5 29.75Z" fill="#B0B8C1"/>
<path d="M40.8 18.75L18.5 18.75C17.3954 18.75 16.5 19.6454 16.5 20.75L16.5 21.75C16.5 22.8546 17.3954 23.75 18.5 23.75L40.8 23.75C42.285 23.75 43.5 23.25 43.5 21.75L43.5 20.75C43.5 19.25 42.285 18.75 40.8 18.75Z" fill="#B0B8C1"/>
<rect x="41.3564" y="43.3021" width="4" height="7" transform="rotate(-44.788 41.3564 43.3021)" fill="#8B95A1"/>
<path d="M41.8675 30.968C44.591 33.7118 44.5746 38.1439 41.8308 40.8674C39.0871 43.591 34.6549 43.5746 31.9314 40.8308C29.2079 38.0871 29.2243 33.6549 31.968 30.9314C34.7118 28.2079 39.1439 28.2243 41.8675 30.968Z" fill="white" fill-opacity="0.3"/>
<path fill-rule="evenodd" clip-rule="evenodd" d="M43.997 28.8545C47.8878 32.7742 47.8644 39.1058 43.9447 42.9965C40.025 46.8873 33.6934 46.8639 29.8027 42.9442C25.9119 39.0246 25.9353 32.693 29.855 28.8022C33.7747 24.9114 40.1063 24.9348 43.997 28.8545ZM41.8313 40.8674C44.575 38.1439 44.5914 33.7117 41.8679 30.968C39.1443 28.2242 34.7122 28.2078 31.9685 30.9313C29.2247 33.6549 29.2083 38.087 31.9318 40.8308C34.6554 43.5745 39.0875 43.5909 41.8313 40.8674Z" fill="#4E5968"/>
<rect x="43.46" y="48.2596" width="8" height="15" rx="2" transform="rotate(-44.788 43.46 48.2596)" fill="#168AFF"/>
<rect x="2" y="2" width="17.5" height="17.5" rx="8.75" fill="white"/>
<path d="M14.425 2H7.075C3.9 2 2 3.9 2 7.075V14.425C2 17.6 3.9 19.5 7.075 19.5H14.425C17.6 19.5 19.5 17.6 19.5 14.425V7.075C19.5 3.9 17.6 2 14.425 2ZM15.675 13.4C16.3 14.025 16.3 15.05 15.675 15.675C15.35 15.975 14.95 16.125 14.525 16.125C14.125 16.125 13.725 15.975 13.4 15.675L10.75 13.025L8.125 15.675C7.8 15.975 7.4 16.125 6.975 16.125C6.575 16.125 6.175 15.975 5.85 15.675C5.225 15.05 5.225 14.025 5.85 13.4L8.5 10.75L5.85 8.125C5.225 7.5 5.225 6.475 5.85 5.85C6.475 5.225 7.5 5.225 8.125 5.85L10.75 8.5L13.4 5.85C14.025 5.225 15.05 5.225 15.675 5.85C16.3 6.475 16.3 7.5 15.675 8.125L13.025 10.75L15.675 13.4Z" fill="#B0B8C1"/>
</svg>
