<svg width="100%" height="100%" viewBox="0 0 18 18" fill="none" xmlns="http://www.w3.org/2000/svg">
<g clip-path="url(#clip0_18_5399)">
<path d="M9 18C13.9706 18 18 13.9706 18 9C18 4.02944 13.9706 0 9 0C4.02944 0 0 4.02944 0 9C0 13.9706 4.02944 18 9 18Z" fill="#F3F6F9"/>
<path d="M6.81641 6.74994C6.99273 6.24869 7.34077 5.82602 7.79887 5.55679C8.25697 5.28756 8.79558 5.18914 9.31929 5.27897C9.843 5.3688 10.318 5.64108 10.6602 6.04758C11.0024 6.45409 11.1897 6.96858 11.1889 7.49994C11.1889 8.99994 8.93891 9.74994 8.93891 9.74994" stroke="#8B95A1" stroke-width="1.5" stroke-linecap="round" stroke-linejoin="round"/>
<path d="M9 12.75H9.0075" stroke="#8B95A1" stroke-width="1.5" stroke-linecap="round" stroke-linejoin="round"/>
</g>
<defs>
<clipPath id="clip0_18_5399">
<rect width="18" height="18" fill="white"/>
</clipPath>
</defs>
</svg>
