<svg width="100%" height="100%" viewBox="0 0 25 24" fill="none" xmlns="http://www.w3.org/2000/svg">
<path d="M12.25 2.25C7.27952 2.25 3.25 6.24629 3.25 11.1758C3.25 12.3764 3.50568 14.7692 5.41178 16.9639C6.04151 17.6887 8.94864 20.5227 9.41887 21.0187C9.76152 21.3796 10.7324 22.25 12.25 22.25C13.7676 22.25 14.738 21.3788 15.0811 21.0187C15.5514 20.5245 18.4585 17.6887 19.0882 16.9639C20.9943 14.7692 21.25 12.3764 21.25 11.1758C21.25 6.24629 17.2205 2.25 12.25 2.25ZM12.25 13.0007C11.8675 13.0007 11.4936 12.8882 11.1755 12.6774C10.8575 12.4667 10.6096 12.1671 10.4632 11.8166C10.3168 11.4662 10.2785 11.0805 10.3531 10.7084C10.4278 10.3364 10.612 9.99459 10.8824 9.72634C11.1529 9.45809 11.4975 9.27541 11.8727 9.20141C12.2479 9.1274 12.6367 9.16538 12.9901 9.31055C13.3435 9.45573 13.6456 9.70157 13.8581 10.017C14.0706 10.3324 14.184 10.7033 14.184 11.0826C14.184 11.3345 14.134 11.5839 14.0368 11.8166C13.9396 12.0493 13.7971 12.2608 13.6176 12.4389C13.438 12.617 13.2248 12.7583 12.9901 12.8547C12.7555 12.9511 12.504 13.0007 12.25 13.0007Z" fill="currentColor"/>
</svg>
