<svg width="100%" height="100%" viewBox="0 0 24 24" fill="none" xmlns="http://www.w3.org/2000/svg">
<path d="M12 2.27539C13.5842 2.27539 15.0435 2.67119 16.376 3.46387H16.375C17.7063 4.23904 18.7598 5.29289 19.5352 6.62402H19.5361C20.3288 7.95647 20.7246 9.41584 20.7246 11C20.7246 12.0467 20.5508 13.0427 20.2021 13.9873L20.042 14.3896C19.5872 15.4507 18.9625 16.3686 18.1699 17.1445L18.1709 17.1455L14.7217 20.6455H14.7207C14.2097 21.1566 13.6283 21.5079 12.9775 21.6963H12.9766C12.3426 21.8676 11.6995 21.8672 11.0498 21.6963H11.0469C10.4129 21.5078 9.84851 21.1562 9.35449 20.6455L5.85449 17.1709V17.1699C5.14659 16.4765 4.57346 15.6806 4.13672 14.7812L3.95801 14.3896C3.50248 13.3268 3.27539 12.1964 3.27539 11C3.27539 9.41629 3.66276 7.95731 4.43848 6.625L4.43945 6.62402L4.59082 6.37793C5.36485 5.16254 6.37601 4.19069 7.62402 3.46387L7.875 3.32031C9.13915 2.62347 10.5147 2.27539 12 2.27539ZM12 3.72461C10.6502 3.72461 9.41714 4.04485 8.2998 4.68555L8.30078 4.68652C7.26819 5.28759 6.43778 6.09767 5.80957 7.11816L5.68652 7.3252C5.04593 8.4257 4.72461 9.64995 4.72461 11C4.72461 12.021 4.9065 12.9659 5.26758 13.8359L5.41016 14.1523C5.71329 14.7755 6.11446 15.3476 6.6123 15.8701L6.86914 16.1279L6.87109 16.1289L10.3711 19.6289L10.3721 19.6309L10.501 19.7588C10.8032 20.0434 11.1208 20.2322 11.4531 20.3291L11.5957 20.3652C11.9295 20.4384 12.2626 20.4265 12.5967 20.3291L12.7393 20.2822C13.0224 20.1765 13.299 20.0023 13.5693 19.7578L13.7041 19.6289L17.1533 16.1299L17.1553 16.1289L17.4062 15.8711C17.9744 15.2598 18.4162 14.5733 18.7324 13.8115L18.8594 13.4824C19.1362 12.7061 19.2754 11.8789 19.2754 11C19.2754 9.73431 18.9928 8.57943 18.4297 7.5332L18.3135 7.3252C17.7123 6.27705 16.902 5.43855 15.8818 4.80957L15.6748 4.68652C14.5743 4.04593 13.3501 3.72461 12 3.72461ZM12 9.27539C12.4169 9.27539 12.7822 9.40399 13.0918 9.66113L13.2207 9.7793C13.5562 10.1148 13.7246 10.5236 13.7246 11L13.7168 11.1699C13.6799 11.5614 13.5141 11.9119 13.2227 12.2188L13.2207 12.2207C12.8852 12.5562 12.4764 12.7246 12 12.7246C11.5969 12.7246 11.2343 12.5955 10.915 12.3398L10.7812 12.2227L10.7773 12.2188C10.4443 11.8681 10.2754 11.4606 10.2754 11L10.2832 10.8242C10.3202 10.4224 10.4858 10.0728 10.7793 9.7793L10.7812 9.77734L10.915 9.66016C11.2343 9.40451 11.5969 9.27539 12 9.27539Z" fill="currentColor" stroke="currentColor" stroke-width="0.2"/>
</svg>
