<svg width="100%" height="100%" viewBox="0 0 25 24" fill="none" xmlns="http://www.w3.org/2000/svg">
<path d="M12.1758 3C16.553 3 20.1016 6.54857 20.1016 10.9258C20.1016 11.9296 19.9023 13.8561 18.4971 15.6953L18.2002 16.0615C17.9175 16.3896 17.0735 17.2465 16.2021 18.1221C15.7807 18.5456 15.3554 18.9706 15.0049 19.3223L14.2559 20.082C13.9906 20.3626 13.2749 21 12.1758 21C11.2133 21 10.5442 20.5121 10.2158 20.2031L10.0957 20.083C9.84854 19.8203 8.99087 18.9674 8.14941 18.1221C7.49565 17.4653 6.85718 16.8188 6.45996 16.3984L6.15137 16.0615C4.47645 14.1171 4.25 11.9965 4.25 10.9258C4.25001 6.54857 7.79857 3.00001 12.1758 3Z" stroke="currentColor" stroke-width="2" stroke-miterlimit="10"/>
<path d="M12.1759 12.7502C13.2352 12.7502 14.094 11.8915 14.094 10.8321C14.094 9.77281 13.2352 8.91406 12.1759 8.91406C11.1166 8.91406 10.2578 9.77281 10.2578 10.8321C10.2578 11.8915 11.1166 12.7502 12.1759 12.7502Z" fill="currentColor"/>
</svg>
