<svg width="100%" height="100%" viewBox="0 0 24 24" fill="none" xmlns="http://www.w3.org/2000/svg">
<path d="M5.925 17.1C5.125 16.3167 4.5 15.4 4.05 14.35C3.6 13.3 3.375 12.1833 3.375 11C3.375 9.43333 3.75833 7.99167 4.525 6.675C5.30833 5.35833 6.35833 4.31667 7.675 3.55C8.99167 2.76667 10.4333 2.375 12 2.375C13.5667 2.375 15.0083 2.76667 16.325 3.55C17.6417 4.31667 18.6833 5.35833 19.45 6.675C20.2333 7.99167 20.625 9.43333 20.625 11C20.625 12.1833 20.4 13.3 19.95 14.35C19.5 15.4 18.875 16.3083 18.075 17.075L14.65 20.575C14.15 21.075 13.5833 21.4167 12.95 21.6C12.3333 21.7667 11.7083 21.7667 11.075 21.6C10.4583 21.4167 9.90833 21.075 9.425 20.575L5.925 17.1ZM13.625 11C13.625 10.55 13.4667 10.1667 13.15 9.85C12.8333 9.53333 12.45 9.375 12 9.375C11.5667 9.375 11.1833 9.53333 10.85 9.85C10.5333 10.1667 10.375 10.55 10.375 11C10.375 11.4333 10.5333 11.8167 10.85 12.15C11.1833 12.4667 11.5667 12.625 12 12.625C12.45 12.625 12.8333 12.4667 13.15 12.15C13.4667 11.8167 13.625 11.4333 13.625 11Z" fill="currentColor" />
</svg>
