<svg width="100%" height="100%" viewBox="0 0 25 24" fill="none" xmlns="http://www.w3.org/2000/svg">
<path d="M12.25 2C17.7728 2 22.25 6.47715 22.25 12C22.25 17.5228 17.7728 22 12.25 22C6.72715 22 2.25 17.5228 2.25 12C2.25 6.47715 6.72715 2 12.25 2ZM12.25 7C11.6977 7 11.25 7.44772 11.25 8V11H8.25C7.69772 11 7.25 11.4477 7.25 12C7.25 12.5523 7.69772 13 8.25 13H11.25V16C11.25 16.5523 11.6977 17 12.25 17C12.8023 17 13.25 16.5523 13.25 16V13H16.25C16.8023 13 17.25 12.5523 17.25 12C17.25 11.4477 16.8023 11 16.25 11H13.25V8C13.25 7.44772 12.8023 7 12.25 7Z" fill="currentColor"/>
</svg>
