<svg width="100%" height="100%" viewBox="0 0 24 24" fill="none" xmlns="http://www.w3.org/2000/svg">
<path fill-rule="evenodd" clip-rule="evenodd" d="M12 22C17.5228 22 22 17.5228 22 12C22 6.47715 17.5228 2 12 2C6.47715 2 2 6.47715 2 12C2 17.5228 6.47715 22 12 22ZM7.76069 9.00914L10.7496 12L7.76723 14.9843C7.66377 15.0878 7.57416 15.2198 7.52942 15.3821C7.48389 15.5472 7.49393 15.711 7.54061 15.8605L7.54639 15.879L7.55359 15.8971C7.66328 16.1714 7.87722 16.3605 8.15198 16.4464C8.294 16.4908 8.45284 16.5047 8.61573 16.4639C8.77822 16.4233 8.9113 16.3367 9.01547 16.2324L11.9973 13.2486L14.9858 16.239L14.9925 16.2453C15.2134 16.4505 15.5232 16.5703 15.8646 16.4564L15.8734 16.4535L15.882 16.4502C16.1606 16.3457 16.3642 16.1355 16.4541 15.8476C16.5001 15.7003 16.5118 15.5355 16.464 15.368C16.418 15.2068 16.3267 15.0778 16.2216 14.9784L13.2451 12L16.2274 9.01569C16.33 8.91311 16.4254 8.77944 16.4717 8.61149C16.5182 8.44296 16.5053 8.27473 16.4484 8.1219C16.3537 7.83706 16.1437 7.63079 15.8556 7.54069C15.7061 7.49393 15.5421 7.48387 15.3769 7.52948C15.2145 7.5743 15.0827 7.66404 14.9792 7.76756L11.9973 10.7514L9.02132 7.77341C8.91894 7.66502 8.787 7.57442 8.62421 7.52948C8.45719 7.48338 8.29338 7.49513 8.14714 7.53817L8.1391 7.54069C7.84653 7.63217 7.63451 7.84343 7.54198 8.13511C7.43093 8.47448 7.55022 8.78233 7.7544 9.00236L7.76069 9.00914Z" fill="currentColor"/>
</svg>
