<svg width="64" height="64" viewBox="0 0 64 64" fill="none" xmlns="http://www.w3.org/2000/svg">
<rect width="64" height="64" rx="12" fill="#F3F6F9"/>
<path d="M29.7686 17.1146C31.2823 16.6555 32.8984 16.6555 34.4121 17.1146L43.2529 19.7962C46.6251 20.8189 48.9315 23.9277 48.9316 27.4515V36.6419C48.9316 40.1948 46.5876 43.3228 43.1777 44.3206L34.3379 46.9075C32.8708 47.3369 31.3109 47.3368 29.8438 46.9075L21.0029 44.3206C17.593 43.3228 15.25 40.1948 15.25 36.6419V27.4515C15.2502 23.9278 17.5557 20.819 20.9277 19.7962L29.7686 17.1146Z" fill="#333D4B"/>
<path d="M45.373 26.4283H49.8503C52.9581 26.4283 55.4774 28.9477 55.4774 32.0555V32.0555C55.4774 35.1633 52.9581 37.6827 49.8503 37.6827H45.373" stroke="#333D4B" stroke-width="2" stroke-linecap="round"/>
<path d="M18.6279 26.4283H14.1507C11.0429 26.4283 8.52353 28.9477 8.52353 32.0555V32.0555C8.52353 35.1633 11.0429 37.6827 14.1507 37.6827H18.6279" stroke="#333D4B" stroke-width="2" stroke-linecap="round"/>
</svg>
