<svg width="100%" height="100%" viewBox="0 0 64 64" fill="none" xmlns="http://www.w3.org/2000/svg">
<rect width="64" height="64" rx="12" fill="#F3F6F9"/>
<rect x="7.00684" y="18.9829" width="20.0152" height="8.74307" rx="2.17798" fill="#00B29A"/>
<rect x="7.00684" y="18.9829" width="20.0152" height="8.74307" rx="2.17798" fill="black" fill-opacity="0.2"/>
<rect width="20.0152" height="8.74307" rx="2.17798" transform="matrix(-1 8.74228e-08 8.74228e-08 1 56.9922 18.9829)" fill="#00B29A"/>
<rect width="20.0152" height="8.74307" rx="2.17798" transform="matrix(-1 8.74228e-08 8.74228e-08 1 56.9922 18.9829)" fill="black" fill-opacity="0.2"/>
<path d="M44.0986 40.6616C44.0986 43.0673 42.1488 45.017 39.7432 45.0171H24.2441C21.8385 45.017 19.8887 43.0672 19.8887 40.6616V20.0719C19.8887 19.4705 20.3762 18.9829 20.9777 18.9829H26.384C26.916 18.9829 27.3575 19.3738 27.5455 19.8715C28.2243 21.668 29.9599 22.9458 31.9941 22.9458C34.0282 22.9456 35.7632 21.6679 36.4418 19.8715C36.6298 19.3738 37.0713 18.9829 37.6033 18.9829H43.0096C43.6111 18.9829 44.0986 19.4705 44.0986 20.0719V40.6616Z" fill="#00B29A"/>
<rect opacity="0.2" x="44.0986" y="26.1807" width="1.0692" height="24.2101" transform="rotate(90 44.0986 26.1807)" fill="white"/>
<rect opacity="0.2" x="44.0986" y="28.6753" width="1.0692" height="24.2101" transform="rotate(90 44.0986 28.6753)" fill="white"/>
<rect opacity="0.2" x="44.0986" y="31.1708" width="1.0692" height="24.2101" transform="rotate(90 44.0986 31.1708)" fill="white"/>
</svg>
