<svg width="100%" height="100%" viewBox="0 0 64 64" fill="none" xmlns="http://www.w3.org/2000/svg">
<rect width="64" height="64" rx="12" fill="white" fill-opacity="0.05"/>
<path d="M29.7686 17.1151C31.2823 16.656 32.8983 16.656 34.4121 17.1151L43.2529 19.7967C46.6252 20.8195 48.9316 23.928 48.9316 27.452V36.6424C48.9316 40.1952 46.5876 43.3223 43.1777 44.3201L34.3379 46.9071C32.8707 47.3364 31.3109 47.3364 29.8438 46.9071L21.0029 44.3201C17.5931 43.3223 15.2501 40.1952 15.25 36.6424V27.452C15.25 23.9282 17.5557 20.8196 20.9277 19.7967L29.7686 17.1151Z" fill="white"/>
<path d="M45.373 26.4285H49.8503C52.9581 26.4285 55.4774 28.9478 55.4774 32.0557V32.0557C55.4774 35.1635 52.9581 37.6829 49.8503 37.6829H45.373" stroke="white" stroke-width="2" stroke-linecap="round"/>
<path d="M18.6279 26.4285H14.1507C11.0429 26.4285 8.52353 28.9478 8.52353 32.0557V32.0557C8.52353 35.1635 11.0429 37.6829 14.1507 37.6829H18.6279" stroke="white" stroke-width="2" stroke-linecap="round"/>
</svg>
