<svg width="100%" height="100%" viewBox="0 0 64 64" fill="none" xmlns="http://www.w3.org/2000/svg">
<rect width="64" height="64" rx="12" fill="#F3F6F9"/>
<path d="M17.897 17.4592C17.7187 14.8617 19.7777 12.6566 22.3813 12.6566H41.6061C44.2142 12.6566 46.2747 14.869 46.0896 17.4705L44.4193 40.9419C44.2519 43.2946 42.2945 45.1177 39.9358 45.1177H23.9924C21.6294 45.1177 19.6699 43.2881 19.5081 40.9307L17.897 17.4592Z" fill="#FF9249"/>
<path d="M19.5205 41.228H44.3953V45.6102C44.3953 48.0926 42.3829 50.105 39.9005 50.105H24.0153C21.5329 50.105 19.5205 48.0926 19.5205 45.6102V41.228Z" fill="#168AFF"/>
<circle cx="32.0001" cy="26.9483" r="3.4962" fill="white"/>
<rect x="31.3447" y="20.8298" width="1.31108" height="1.96661" rx="0.655538" fill="white"/>
<rect x="31.3447" y="31.1" width="1.31108" height="1.96661" rx="0.655538" fill="white"/>
<rect x="27.8486" y="26.1832" width="1.31108" height="1.96661" rx="0.655538" transform="rotate(90 27.8486 26.1832)" fill="white"/>
<rect x="38.1182" y="26.1832" width="1.31108" height="1.96661" rx="0.655538" transform="rotate(90 38.1182 26.1832)" fill="white"/>
<rect x="35.7939" y="22.141" width="1.31108" height="1.96661" rx="0.655538" transform="rotate(45 35.7939 22.141)" fill="white"/>
<rect width="1.31108" height="1.96661" rx="0.655538" transform="matrix(-0.707107 0.707107 0.707107 0.707107 28.1201 22.141)" fill="white"/>
<rect x="28.583" y="29.1339" width="1.31108" height="1.96661" rx="0.655538" transform="rotate(45 28.583 29.1339)" fill="white"/>
<rect width="1.31108" height="1.96661" rx="0.655538" transform="matrix(-0.707107 0.707107 0.707107 0.707107 35.3311 29.3525)" fill="white"/>
<path opacity="0.2" d="M33.0557 43.7627C33.6079 43.7627 34.0557 44.2104 34.0557 44.7627V45.0195H44.3955V46.2627H19.5186V45.0195H29.8584V44.7627C29.8584 44.2104 30.3061 43.7627 30.8584 43.7627H33.0557Z" fill="black"/>
</svg>
