<svg width="100%" height="100%" viewBox="0 0 64 64" fill="none" xmlns="http://www.w3.org/2000/svg">
<rect width="64" height="64" rx="12" fill="#F3F6F9"/>
<rect x="30.2227" y="32.3868" width="3.3162" height="9.9486" transform="rotate(-36.5736 30.2227 32.3868)" fill="#4E5968"/>
<rect x="34.6035" y="40.1473" width="5.527" height="11.054" rx="2" transform="rotate(-36.5736 34.6035 40.1473)" fill="#8B95A1"/>
<path d="M18.0933 42.0116C12.4715 34.4345 14.0969 23.7046 21.674 18.0828C29.2511 12.4609 39.9914 14.0161 45.6132 21.5932C46.1754 22.3509 46.0169 23.4209 45.2592 23.9831L20.4832 42.3656C19.7255 42.9278 18.6555 42.7693 18.0933 42.0116Z" fill="#168AFF"/>
<rect x="18.8701" y="17.8978" width="2.85562" height="4.99733" rx="1.42781" transform="rotate(-36.5736 18.8701 17.8978)" fill="#168AFF"/>
<path opacity="0.2" d="M23.5713 40.0747C15.7125 30.3951 18.5944 21.7051 21.2289 18.4133C21.9422 28.2073 27.3821 33.8062 29.0287 36.0256L23.5713 40.0747Z" fill="white"/>
<path opacity="0.2" d="M41.2811 26.9352C34.2956 16.6077 25.1433 16.8464 21.2291 18.4135C30.3957 21.9355 34.177 28.765 35.8237 30.9843L41.2811 26.9352Z" fill="white"/>
</svg>
