<svg width="64" height="64" viewBox="0 0 64 64" fill="none" xmlns="http://www.w3.org/2000/svg">
<path d="M32 8.26709C37.6169 8.26709 42.2271 12.568 42.7217 18.0562H46.5039C52.4506 18.0563 57.2715 22.877 57.2715 28.8237C57.2715 34.7705 52.4506 39.5911 46.5039 39.5913H24.9678C19.021 39.5912 14.2002 34.7705 14.2002 28.8237C14.2002 24.1877 17.1301 20.2361 21.2393 18.7192C21.4063 12.9184 26.1587 8.26709 32 8.26709Z" fill="#6B7684"/>
<path d="M26.6162 17.0571C33.5512 17.0572 39.2446 22.3671 39.8555 29.1431H45.2949C52.6374 29.1431 58.5896 35.0956 58.5898 42.438C58.5898 49.7806 52.6375 55.7329 45.2949 55.7329H18.7051C11.3625 55.7329 5.41016 49.7806 5.41016 42.438C5.4103 37.0119 8.66109 32.3452 13.3213 30.2788C13.3607 22.9699 19.2981 17.0571 26.6162 17.0571Z" fill="#E2E7EB"/>
</svg>
