<svg width="64" height="64" viewBox="0 0 64 64" fill="none" xmlns="http://www.w3.org/2000/svg">
<path d="M32.0813 3.74841C36.8337 3.74841 40.7343 7.38738 41.1528 12.0308H44.3532C49.3847 12.0308 53.4632 16.1095 53.4634 21.141C53.4634 26.1726 49.3848 30.2522 44.3532 30.2522H26.1317C21.1002 30.252 17.0215 26.1725 17.0215 21.141C17.0216 17.2185 19.5006 13.875 22.9774 12.5917C23.1188 7.68389 27.1393 3.74864 32.0813 3.74841Z" fill="#6B7684"/>
<path d="M27.5259 11.1858C33.3935 11.1858 38.2091 15.6786 38.726 21.4116H43.3298C49.5421 21.4116 54.5788 26.4476 54.5791 32.6598C54.5791 38.8723 49.5423 43.9091 43.3298 43.9091H20.8322C14.62 43.9089 9.58398 38.8722 9.58398 32.6598C9.58419 28.0689 12.3357 24.1227 16.2787 22.3744C16.3111 16.1896 21.3336 11.1859 27.5259 11.1858Z" fill="#E2E7EB"/>
<path d="M14.7656 54.1186C14.7658 49.8965 19.2169 46.5439 19.2169 46.5439C19.2169 46.5439 23.5215 49.8097 23.5215 54.1186C23.5215 56.4342 21.3065 58.5605 19.2169 58.5974C17.081 58.6351 14.7655 56.4855 14.7656 54.1186Z" fill="#168AFF"/>
<path d="M40.6406 54.1186C40.6408 49.8965 45.0919 46.5439 45.0919 46.5439C45.0919 46.5439 49.3965 49.8097 49.3965 54.1186C49.3965 56.4342 47.1815 58.5605 45.0919 58.5974C42.956 58.6351 40.6405 56.4855 40.6406 54.1186Z" fill="#168AFF"/>
<path d="M27.7031 56.9466C27.7033 52.7245 32.1544 49.3719 32.1544 49.3719C32.1544 49.3719 36.459 52.6377 36.459 56.9466C36.459 59.2622 34.244 61.3885 32.1544 61.4254C30.0185 61.4631 27.703 59.3135 27.7031 56.9466Z" fill="#168AFF"/>
</svg>
