<svg width="64" height="64" viewBox="0 0 64 64" fill="none" xmlns="http://www.w3.org/2000/svg">
<path d="M32 7.11426C37.237 7.11426 41.5359 11.1243 41.9971 16.2412H42.04C47.5846 16.2414 52.0791 20.7366 52.0791 26.2812C52.0789 31.8257 47.5845 36.3202 42.04 36.3203H21.9609C16.4163 36.3203 11.9211 31.8258 11.9209 26.2812C11.9209 20.7365 16.4162 16.2412 21.9609 16.2412H22.0039C22.4651 11.1243 26.7631 7.11433 32 7.11426Z" fill="#F3F6F9"/>
<rect x="9.10742" y="35.6924" width="45.7854" height="3" rx="1.5" fill="#B0B8C1"/>
<rect x="12.8496" y="41.3149" width="31.1328" height="3" rx="1.5" fill="#D0D8DE"/>
<rect x="19.1631" y="52.561" width="25.6748" height="3" rx="1.5" fill="#E2E7EB"/>
<rect x="22.8066" y="46.938" width="28.738" height="3" rx="1.5" fill="#D0D8DE"/>
</svg>
