<svg width="100%" height="100%" viewBox="0 0 64 64" fill="none" xmlns="http://www.w3.org/2000/svg">
<path d="M31.9998 57.5029C32.8282 57.5029 33.4998 56.8314 33.4998 56.0029V51.0176L37.614 54.5986C38.2388 55.142 39.1864 55.0766 39.7302 54.4521C40.2741 53.8275 40.2081 52.88 39.5838 52.3359L33.4998 47.04V33.5C33.4998 32.6716 32.8282 32 31.9998 32C31.1715 32.0002 30.4998 32.6717 30.4998 33.5V47.041L24.4168 52.3359C23.7923 52.88 23.7274 53.8275 24.2713 54.4521C24.8153 55.0763 25.7629 55.1424 26.3875 54.5986L30.4998 51.0186V56.0029C30.4998 56.8312 31.1715 57.5027 31.9998 57.5029Z" fill="#93C9FF"/>
<path d="M32.0005 6.49707C32.8289 6.49707 33.5005 7.16864 33.5005 7.99707V12.9834L37.6147 9.40234C38.2396 8.85847 39.187 8.92406 39.731 9.54883C40.2745 10.1736 40.209 11.1212 39.5845 11.665L33.5005 16.9609V30.5C33.5005 31.3284 32.8289 32 32.0005 32C31.1722 31.9998 30.5005 31.3283 30.5005 30.5V16.96L24.4175 11.665C23.7927 11.1211 23.727 10.1727 24.271 9.54785C24.815 8.92322 25.7625 8.85847 26.3872 9.40234L30.5005 12.9824V7.99707C30.5005 7.16876 31.1722 6.49727 32.0005 6.49707Z" fill="#93C9FF"/>
<path d="M57.5039 32C57.5038 32.8283 56.8323 33.5 56.0039 33.5L51.0186 33.5L54.5986 37.6132C55.1423 38.2379 55.0775 39.1855 54.4531 39.7295C53.8284 40.2734 52.8809 40.2076 52.3369 39.583L47.04 33.5L33.501 33.5C32.6726 33.5 32.001 32.8283 32.001 32C32.001 31.1715 32.6725 30.5 33.501 30.5L47.041 30.5L52.3369 24.417C52.8809 23.7922 53.8283 23.7265 54.4531 24.2705C55.0775 24.8144 55.1433 25.762 54.5996 26.3867L51.0195 30.5L56.0039 30.5C56.8323 30.5 57.5039 31.1715 57.5039 32Z" fill="#93C9FF"/>
<path d="M6.49805 31.9993C6.49805 32.8278 7.16962 33.4993 7.99805 33.4993L12.9844 33.4993L9.40332 37.6136C8.85946 38.2384 8.92504 39.1859 9.54981 39.7298C10.1746 40.2734 11.1222 40.2079 11.666 39.5833L16.9619 33.4993L30.501 33.4993C31.3294 33.4993 32.001 32.8278 32.001 31.9993C32.0008 31.171 31.3293 30.4993 30.501 30.4993L16.9609 30.4993L11.666 24.4163C11.1222 23.7916 10.1746 23.7262 9.5498 24.2698C8.92505 24.8138 8.85947 25.7612 9.40332 26.386L12.9834 30.4993L7.99805 30.4993C7.16973 30.4993 6.49823 31.1711 6.49805 31.9993Z" fill="#93C9FF"/>
<path d="M50.0345 50.0333C49.4487 50.6189 48.4989 50.619 47.9132 50.0333L44.3887 46.5089L44.0117 51.9489C43.9542 52.7749 43.2378 53.3986 42.4117 53.3417C41.5854 53.2845 40.962 52.568 41.0189 51.7417L41.5762 43.6963L32.0012 34.1214C31.4155 33.5357 31.4157 32.5859 32.0012 32C32.587 31.4143 33.5368 31.4143 34.1226 32L43.6968 41.5743L51.7429 41.0177C52.5693 40.9607 53.2857 41.5841 53.3429 42.4105C53.3996 43.2366 52.7762 43.9533 51.9501 44.0105L46.51 44.3875L50.0345 47.912C50.6203 48.4978 50.6203 49.4476 50.0345 50.0333Z" fill="#93C9FF"/>
<path d="M13.9672 13.9667C13.3814 14.5525 13.3814 15.5023 13.9672 16.088L17.4924 19.6132L12.0524 19.9903C11.226 20.0475 10.6017 20.7645 10.6589 21.5909C10.7164 22.417 11.4327 23.0408 12.2589 22.9837L20.3056 22.4265L29.8792 32C30.465 32.5858 31.4147 32.5858 32.0005 32C32.5862 31.4142 32.5863 30.4645 32.0005 29.8787L22.4263 20.3044L22.9835 12.259C23.0407 11.4327 22.4169 10.7165 21.5907 10.6591C20.7643 10.602 20.0479 11.2255 19.9908 12.0519L19.6137 17.4919L16.0886 13.9667C15.5028 13.381 14.553 13.381 13.9672 13.9667Z" fill="#93C9FF"/>
<path d="M50.0337 13.9667C50.6195 14.5525 50.6195 15.5023 50.0337 16.088L46.5086 19.6132L51.9486 19.9903C52.775 20.0475 53.3992 20.7645 53.3421 21.5909C53.2846 22.417 52.5683 23.0408 51.7421 22.9837L43.6953 22.4265L34.1218 32C33.536 32.5858 32.5862 32.5858 32.0005 32C31.4147 31.4142 31.4147 30.4645 32.0005 29.8787L41.5747 20.3044L41.0174 12.259C40.9603 11.4327 41.584 10.7165 42.4103 10.6591C43.2366 10.602 43.9531 11.2255 44.0102 12.0519L44.3872 17.4919L47.9124 13.9667C48.4982 13.381 49.448 13.381 50.0337 13.9667Z" fill="#93C9FF"/>
<path d="M13.9669 50.033C14.5527 50.6188 15.5025 50.6188 16.0883 50.033L19.6141 46.5071L19.9912 51.9485C20.0485 52.7748 20.7648 53.3985 21.5911 53.3413C22.4173 53.2839 23.041 52.5676 22.9839 51.7414L22.4267 43.6946L32.0002 34.121C32.586 33.5352 32.586 32.5855 32.0002 31.9997C31.4144 31.4142 30.4646 31.414 29.8789 31.9997L20.3047 41.5739L12.2592 41.0167C11.433 40.9597 10.7172 41.5839 10.66 42.4102C10.603 43.2365 11.2264 43.953 12.0528 44.0101L17.4921 44.3865L13.9669 47.9117C13.3812 48.4974 13.3814 49.4472 13.9669 50.033Z" fill="#93C9FF"/>
</svg>
