<svg width="64" height="64" viewBox="0 0 64 64" fill="none" xmlns="http://www.w3.org/2000/svg">
<path d="M32.0813 3.74841C36.8337 3.74841 40.7343 7.38738 41.1528 12.0308H44.3532C49.3847 12.0308 53.4632 16.1095 53.4634 21.141C53.4634 26.1726 49.3848 30.2522 44.3532 30.2522H26.1317C21.1002 30.252 17.0215 26.1725 17.0215 21.141C17.0216 17.2185 19.5006 13.875 22.9774 12.5917C23.1188 7.68389 27.1393 3.74864 32.0813 3.74841Z" fill="#6B7684"/>
<path d="M27.5259 11.1858C33.3935 11.1858 38.2091 15.6786 38.726 21.4116H43.3298C49.5421 21.4116 54.5788 26.4476 54.5791 32.6598C54.5791 38.8723 49.5423 43.9091 43.3298 43.9091H20.8322C14.62 43.9089 9.58398 38.8722 9.58398 32.6598C9.58419 28.0689 12.3357 24.1227 16.2787 22.3744C16.3111 16.1896 21.3336 11.1859 27.5259 11.1858Z" fill="#E2E7EB"/>
<path d="M30.5802 26.5239L21.9075 48.4758C21.7779 48.804 22.0197 49.1595 22.3726 49.1595L31.0453 49.1596C31.3214 49.1596 31.5452 49.3834 31.5452 49.6596V61.6209C31.5452 62.1484 32.2563 62.3164 32.4924 61.8447L42.292 42.2645C42.4584 41.932 42.2167 41.5407 41.8449 41.5407H32.0452C31.7691 41.5407 31.5452 41.3168 31.5452 41.0407L31.5452 26.7076C31.5452 26.1559 30.7829 26.0108 30.5802 26.5239Z" fill="#FFBD67"/>
</svg>
