<svg width="100%" height="100%" viewBox="0 0 64 64" fill="none" xmlns="http://www.w3.org/2000/svg">
<circle cx="21.6826" cy="16.7081" r="10.3984" fill="#FFBD67"/>
<path d="M33.9717 10.0909C39.4528 10.0911 43.9401 14.3325 44.3379 19.712C49.1938 20.5884 52.8779 24.8341 52.8779 29.9425C52.8779 35.6854 48.2223 40.3409 42.4795 40.3409H21.6826C15.9397 40.3409 11.2842 35.6854 11.2842 29.9425C11.2842 24.1996 15.9397 19.5441 21.6826 19.5441H23.6182C24.096 14.2444 28.5476 10.0909 33.9717 10.0909Z" fill="#F3F6F9"/>
<path d="M14.7656 50.383C14.7658 46.1609 19.2169 42.8083 19.2169 42.8083C19.2169 42.8083 23.5215 46.0741 23.5215 50.383C23.5215 52.6986 21.3065 54.8249 19.2169 54.8618C17.081 54.8995 14.7655 52.7499 14.7656 50.383Z" fill="#168AFF"/>
<path d="M40.6406 50.383C40.6408 46.1609 45.0919 42.8083 45.0919 42.8083C45.0919 42.8083 49.3965 46.0741 49.3965 50.383C49.3965 52.6986 47.1815 54.8249 45.0919 54.8618C42.956 54.8995 40.6405 52.7499 40.6406 50.383Z" fill="#168AFF"/>
<path d="M27.7031 53.211C27.7033 48.9889 32.1544 45.6363 32.1544 45.6363C32.1544 45.6363 36.459 48.9021 36.459 53.211C36.459 55.5266 34.244 57.6529 32.1544 57.6898C30.0185 57.7275 27.703 55.5779 27.7031 53.211Z" fill="#168AFF"/>
</svg>
